<svg width="21" height="18" viewBox="0 0 21 18" fill="none" xmlns="http://www.w3.org/2000/svg">
<g clip-path="url(#clip0_184_13488)">
<mask id="mask0_184_13488" style="mask-type:luminance" maskUnits="userSpaceOnUse" x="1" y="0" width="19" height="18">
<path d="M1.5 1.90735e-06H19.5V18H1.5V1.90735e-06Z" fill="white"/>
</mask>
<g mask="url(#mask0_184_13488)">
<path d="M11.9448 16.0701H18.1817C18.7156 16.0701 19.1484 15.6373 19.1484 15.1033V6.71141H1.85156V15.1033C1.85156 15.6373 2.28437 16.0701 2.81829 16.0701H8.85216" stroke="black" stroke-width="0.8" stroke-miterlimit="10" stroke-linecap="round" stroke-linejoin="round"/>
<path d="M18.1817 1.93018H2.81829C2.28437 1.93018 1.85156 2.36298 1.85156 2.8969V6.71143H19.1484V2.8969C19.1484 2.36298 18.7156 1.93018 18.1817 1.93018Z" stroke="black" stroke-width="0.8" stroke-miterlimit="10" stroke-linecap="round" stroke-linejoin="round"/>
<path d="M8.95138 14.0974H4.2787C3.99291 14.0974 3.76123 13.8657 3.76123 13.5799V9.15782C3.76123 8.87203 3.99291 8.64032 4.2787 8.64032H8.95138C9.23717 8.64032 9.46885 8.87203 9.46885 9.15782V13.5799C9.46885 13.8657 9.23717 14.0974 8.95138 14.0974Z" stroke="black" stroke-width="0.8" stroke-miterlimit="10" stroke-linecap="round" stroke-linejoin="round"/>
<path d="M6.61524 11.7131C5.91328 11.7131 5.34424 11.1441 5.34424 10.4421V9.91148C5.34424 9.20952 5.91328 8.64048 6.61524 8.64048C7.31721 8.64048 7.88625 9.20952 7.88625 9.91148V10.4421C7.88625 11.1441 7.31721 11.7131 6.61524 11.7131Z" stroke="black" stroke-width="0.8" stroke-miterlimit="10" stroke-linecap="round" stroke-linejoin="round"/>
<path d="M9.35614 13.9023C9.26154 14.0212 9.11525 14.0974 8.95157 14.0974H4.27881C4.11509 14.0974 3.96915 14.0215 3.87451 13.9026L3.91621 13.6505C3.99745 13.1581 4.33794 12.7479 4.80664 12.5771L5.59154 12.291C5.7366 12.2385 5.84024 12.1096 5.86045 11.9565L5.92022 11.5065C6.1197 11.6371 6.35872 11.7131 6.61519 11.7131C6.87165 11.7131 7.11064 11.6371 7.31047 11.5061L7.3702 11.9565C7.39045 12.1096 7.49378 12.2385 7.63852 12.291L8.42401 12.5771C8.89271 12.7479 9.2332 13.1581 9.31445 13.6505L9.35614 13.9023Z" stroke="black" stroke-width="0.8" stroke-miterlimit="10" stroke-linecap="round" stroke-linejoin="round"/>
<path d="M17.1394 8.64038H11.3389" stroke="black" stroke-width="0.8" stroke-miterlimit="10" stroke-linecap="round" stroke-linejoin="round"/>
<path d="M13.9102 10.5234H17.1396" stroke="black" stroke-width="0.8" stroke-miterlimit="10" stroke-linecap="round" stroke-linejoin="round"/>
<path d="M11.3389 10.5234H12.3745" stroke="black" stroke-width="0.8" stroke-miterlimit="10" stroke-linecap="round" stroke-linejoin="round"/>
<path d="M14.3013 14.0974H17.1397" stroke="black" stroke-width="0.8" stroke-miterlimit="10" stroke-linecap="round" stroke-linejoin="round"/>
<path d="M13.105 5.42163L13.9106 3.30653C13.927 3.26631 13.984 3.26624 14.0005 3.30646L14.7988 5.42163" stroke="black" stroke-width="0.8" stroke-miterlimit="10" stroke-linecap="round" stroke-linejoin="round"/>
<path d="M13.3564 4.89478H14.5518" stroke="black" stroke-width="0.8" stroke-miterlimit="10" stroke-linecap="round" stroke-linejoin="round"/>
<path d="M9.11328 3.27633V5.42163" stroke="black" stroke-width="0.8" stroke-miterlimit="10" stroke-linecap="round" stroke-linejoin="round"/>
<path d="M11.8881 3.49683C11.8881 3.49683 11.5032 3.17325 11.0492 3.31001C10.6324 3.43555 10.5741 3.91617 10.8757 4.1128C10.8757 4.1128 11.1716 4.24478 11.4998 4.36585C12.2898 4.65726 11.9495 5.42163 11.3135 5.42163C10.995 5.42163 10.7277 5.28213 10.5659 5.10361" stroke="black" stroke-width="0.8" stroke-miterlimit="10" stroke-linecap="round" stroke-linejoin="round"/>
<path d="M6.20117 3.27632L6.93467 5.38942C6.95004 5.43266 7.01135 5.43228 7.02611 5.38879L7.7266 3.28026" stroke="black" stroke-width="0.8" stroke-miterlimit="10" stroke-linecap="round" stroke-linejoin="round"/>
</g>
</g>
<defs>
<clipPath id="clip0_184_13488">
<rect width="18" height="18" fill="white" transform="translate(1.5)"/>
</clipPath>
</defs>
</svg>
